<?xml version="1.0" encoding="UTF-8"?><svg xmlns="http://www.w3.org/2000/svg" xmlns:xlink="http://www.w3.org/1999/xlink" height="371.7" preserveAspectRatio="xMidYMid meet" version="1.0" viewBox="0.0 0.0 498.9 371.7" width="498.9" zoomAndPan="magnify"><g id="change1_1"><path d="M179.6,89l-0.1-0.2l-6.2-3.1h-21.7l-6.2,3.1l-0.1,0.2l0.6,1.4l6.9-3h19.6l6.6,3L179.6,89z M147.7,43.2v0.5 l-3.2,2.1l1.3,3.4l6.9-4.3h19.5l6.9,4.3l1.3-3.4l-3.2-2.1v-0.5v-0.1l-4.4-2.8h-20.6L147.7,43.2L147.7,43.2z M147.7,42l4.2-2.7h21.2 l4.1,2.6c-0.1-1.2-0.2-2.4-0.5-3.6c-2.6-1-7.6-2.4-14.2-2.4c-6.7,0-11.8,1.5-14.3,2.4C148,39.5,147.8,40.7,147.7,42z M148.5,37.2 c2.8-1,7.6-2.3,13.9-2.3c6.3,0,11.2,1.3,13.9,2.2c-0.3-1.1-0.6-2.1-1-3.1c-2-0.9-6-2.3-12.9-2.3c-7,0-11.1,1.4-13,2.3 C149.1,35.1,148.8,36.1,148.5,37.2z M330.3,22.6c1.6-0.3,3.6-0.6,6.1-0.6s4.7,0.3,6.2,0.6c-0.3-0.3-0.5-0.7-0.8-1 c-1.2-0.3-3-0.6-5.4-0.6s-4.2,0.3-5.4,0.6C330.9,21.9,330.6,22.3,330.3,22.6z M147.5,85.4l-1.1,1.7l4.9-2.5h2.3V48h-0.2l-5.9,3.7 V85.4z M148.8,57.3l2.4-1.2v15.5l-2.4,0.7V57.3z M170.4,84.7V48h-15.8v36.6L170.4,84.7L170.4,84.7z M159.6,54.7h2.9h2.9V71h-2.9 h-2.9V54.7z M152.9,88.4l-6.8,3v1.4l5.4-2.5h22l5.3,2.5v-1.5l-6.7-2.9H152.9z M150,32.7c2.3-0.9,6.2-2,12.4-2c6.1,0,10.1,1,12.4,1.9 c-0.4-0.9-0.8-1.8-1.3-2.7c-2.3-0.7-6.2-1.7-11-1.7c-4.9,0-8.9,1-11.1,1.7C150.9,30.9,150.5,31.8,150,32.7z M177.4,51.7l-5.8-3.7 h-0.2v36.6h2.2l4.9,2.5l-1.1-1.7L177.4,51.7L177.4,51.7z M176.1,72.3l-2.4-0.7V56.1l2.4,1.2V72.3z M177.9,50.8l0.6-0.7l-6.5-4.2h-19 l-6.6,4.2l0.6,0.7l6.1-3.8h18.7L177.9,50.8z M485.8,194.5L485.8,194.5L485.8,194.5z M186.2,164.6v-7.8l1,0.3v-0.9l-8.8-3.5h-16 h-15.9l-8.8,3.5v0.9l1-0.3v7.8l0.8-0.2v-7.9l7.1-2.4h2.8v8h1.5v-8H162v8h0.9v-8H174v8h1.5v-8h2.8l7.1,2.4v7.9L186.2,164.6z M340.8,20.3c-0.2-0.2-0.4-0.5-0.5-0.7c-1.1-0.2-2.5-0.4-3.8-0.4s-2.7,0.2-3.8,0.4c-0.2,0.2-0.4,0.5-0.6,0.7l-0.1,0.1 c1.1-0.2,2.6-0.4,4.4-0.4s3.3,0.2,4.5,0.4C340.9,20.4,340.9,20.3,340.8,20.3z M152.1,28.8c2.4-0.7,6-1.5,10.4-1.5 c4.3,0,7.9,0.8,10.3,1.4c-0.5-0.8-0.9-1.5-1.4-2.2c-1.8-0.5-4.9-1.2-8.9-1.2s-7.2,0.7-9,1.2C153,27.3,152.5,28,152.1,28.8z M312.6,188.8l2.4-0.6v-22.1l-4.2,1v-7.5l-1,0.3v-3.3l-1.6-1h-11.9v29.2h-0.7c0,1.9-0.2,5.3-2.4,5.3c-0.4,0-0.8-0.2-1.1-0.5 c-1-1-1.1-3.7-1.1-4.8h-1v-29.2h-11.2v29.2h-0.7c0,1.9-0.2,5.3-2.4,5.3c-0.4,0-0.8-0.2-1.1-0.5c-1-1-1.1-3.7-1.1-4.8h-1v-29.2h-11.2 v29.2h-0.7c0,1.9-0.2,5.3-2.4,5.3c-0.4,0-0.8-0.2-1.1-0.5c-1-1-1.1-3.7-1.1-4.8h-1v-29.2h-11.2v29.2h-1c0,1.2-0.1,3.8-1.1,4.8 c-0.3,0.3-0.7,0.5-1.1,0.5c-2.2,0-2.4-3.4-2.4-5.3h-0.7v-29.2h-11.2v29.2h-1c0,1.2-0.1,3.8-1.1,4.8c-0.3,0.3-0.7,0.5-1.1,0.5 c-2.2,0-2.4-3.4-2.4-5.3H220v-29.2h-11.2v29.2h-1c0,1.2-0.1,3.8-1.1,4.8c-0.3,0.3-0.7,0.5-1.1,0.5c-2.2,0-2.4-3.4-2.4-5.3h-0.7 v-29.2h-11.9l-1.6,1v3.3l-1-0.3v7.5l-4.2-1v22.1l2.4,0.6v2.8c10.7,0.2,115.3,0.2,126.3,0v-2.8H312.6z M312.6,195.1v-2.5 c-5.9,0.1-34.5,0.2-63.2,0.2c-28.6,0-57.2-0.1-63.1-0.2v2.5l6.4,1.7h113.5L312.6,195.1z M146.4,151.7h16h16.3l8.9,3.6l2.5-1.6 l-10.4-4.6h0.1h-34.7l0,0l-10.3,4.6l2.5,1.6L146.4,151.7z M353.8,149.1h-34.6l0,0l-10.4,4.6l2.6,1.6l9-3.6h16.1h16.2l8.9,3.6 l2.5-1.6L353.8,149.1z M366.4,154.6l-3.2,2v0.4h120.9l-5.9-2.9v-1.8l-0.1,0.4c-1.5-0.2-71.5-0.1-111.4,0l1.6,0.7l-0.4,0.2h110.2v1 L366.4,154.6L366.4,154.6z M193.4,200.1h112.2l-1.6-2.3H194.9L193.4,200.1z M183.1,96.5l-4.3-2.1v-0.5l-5.5-2.6h-21.7l-5.5,2.6v0.5 l-4.3,2.1l2,4.7l8.4-3.6h20.7l8.2,3.7L183.1,96.5z M166.8,20.3c-0.2-0.2-0.4-0.5-0.6-0.7c-1.1-0.2-2.4-0.4-3.7-0.4s-2.8,0.2-3.9,0.4 c-0.2,0.2-0.4,0.5-0.5,0.7l-0.1,0.1c1.2-0.2,2.6-0.4,4.4-0.4c1.8,0,3.3,0.2,4.4,0.4C166.8,20.4,166.8,20.3,166.8,20.3z M156.3,22.6 c1.6-0.3,3.7-0.6,6.2-0.6s4.6,0.3,6.2,0.6c-0.3-0.3-0.5-0.7-0.8-1c-1.2-0.3-2.9-0.6-5.3-0.6c-2.5,0-4.3,0.3-5.5,0.6 C156.8,22,156.5,22.3,156.3,22.6z M154.3,25.3c1.9-0.5,4.7-0.9,8.1-0.9c3.4,0,6.1,0.5,8.1,0.9c-0.3-0.5-0.7-0.9-1-1.4 c-1.6-0.4-4-0.9-7-0.9c-3.1,0-5.6,0.5-7.2,0.9C155,24.3,154.7,24.8,154.3,25.3z M140.6,195.1l4.5-1.1h34.8l4.4,1.1v-4.7l-2.3-0.6 v-0.5l-4.7-1.3h-29.7l-4.7,1.3v0.5l-2.3,0.6V195.1z M150.3,138.4h24.4l4,0.8V103l1.5-1l-7.6-3.4h-20.3l-7.7,3.4l1.6,1v36.2 L150.3,138.4z M140.9,166.1l-2.7,0.6c0.9,0,1.8,0,2.7,0V166.1z M146.9,156.1l-4,1.4v30.7l4.7-1.2l29.9,0.1l4.5,1.1v-30.7l-4-1.4 h-0.5v8H172v-8h-7.1v8H160v-8h-7.1v8h-5.5v-8H146.9z M240.7,189.1c0.1,0,0.2,0,0.4-0.2c0.6-0.7,0.8-2.7,0.8-4.1h-2.6 C239.3,186.3,239.5,189.1,240.7,189.1z M192.4,154.6h114.2l-2-1.2l12-5.3l-1.8-4.4v-0.1H184.1l0.1,0.1l-1.9,4.4l12.1,5.3 L192.4,154.6z M275.7,189.1c1.3,0,1.4-2.8,1.4-4.3h-2.6c0,1.4,0.2,3.5,0.8,4.1C275.5,189.1,275.6,189.1,275.7,189.1z M273.5,155.6 h4.3v4.3h-4.3V155.6z M291,155.6h4.3v4.3H291V155.6z M291,160.9h4.3v22.9H291V160.9z M328.4,25.3c1.9-0.5,4.7-0.9,8-0.9 c3.4,0,6.2,0.5,8.2,1c-0.3-0.5-0.7-0.9-1-1.4c-1.6-0.4-4-0.9-7.1-0.9s-5.5,0.5-7.1,0.9C329.1,24.3,328.7,24.8,328.4,25.3z M256.1,160.9h4.3v22.9h-4.3V160.9z M273.5,160.9h4.3v22.9h-4.3V160.9z M221.1,160.9h4.3v22.9h-4.3V160.9z M223.3,189.1 c0.1,0,0.2,0,0.4-0.2c0.6-0.7,0.8-2.7,0.8-4.1h-2.6C221.9,186.3,222,189.1,223.3,189.1z M258.2,189.1c1.3,0,1.4-2.8,1.4-4.3H257 c0,1.4,0.2,3.5,0.8,4.1C258,189.1,258.1,189.1,258.2,189.1z M238.6,155.6h4.3v4.3h-4.3V155.6z M256.1,155.6h4.3v4.3h-4.3V155.6z M238.6,160.9h4.3v22.9h-4.3V160.9z M14.8,157h120.9v-0.4l-3.2-2H20.7v-0.5L14.8,157z M293.2,189.1c1.3,0,1.4-2.8,1.4-4.3H292 c0,1.4,0.2,3.5,0.8,4.1C292.9,189.1,293.1,189.1,293.2,189.1z M321.7,43.2v0.5l-3.2,2.1l1.3,3.4l6.9-4.3h19.5l6.9,4.3l1.3-3.4 l-3.2-2.1v-0.5c0,0,0,0,0-0.1l-4.5-2.9h-20.6L321.7,43.2L321.7,43.2z M321.8,41.9l4.1-2.6H347l4.2,2.7c-0.1-1.2-0.2-2.4-0.5-3.6 c-2.5-1-7.6-2.4-14.2-2.4c-6.7,0-11.7,1.5-14.2,2.4C322,39.5,321.9,40.7,321.8,41.9z M351.9,50.8l0.7-0.7l-6.7-4.2H327l-6.6,4.2 l0.7,0.7l6-3.8h18.7L351.9,50.8z M324.1,32.7c2.3-0.9,6.2-1.9,12.3-1.9c6.2,0,10.2,1,12.5,2c-0.4-0.9-0.8-1.8-1.3-2.7 c-2.3-0.7-6.3-1.7-11.1-1.7c-4.8,0-8.8,1-11.1,1.7C325,30.9,324.5,31.8,324.1,32.7z M322.6,37.2c2.8-1,7.6-2.2,13.9-2.2 c6.4,0,11.3,1.3,14,2.3c-0.3-1.1-0.6-2.1-1-3.1c-1.9-0.9-6-2.3-12.9-2.3s-11,1.3-12.9,2.3C323.2,35.1,322.8,36.1,322.6,37.2z M315.7,142.6l2.6-3v-35.5l-1.9-1.2l-1.6-3.8H184.2l-1.6,3.8l-1.9,1.2v35.5l2.6,3H315.7z M190.2,109.1h118.6v28.3H190.2V109.1z M344.3,84.7V48h-15.8v36.6L344.3,84.7L344.3,84.7z M333.6,54.7h2.9h2.9V71h-2.9h-2.9V54.7z M326.1,28.8c2.4-0.7,6-1.4,10.3-1.4 c4.4,0,8,0.8,10.4,1.5c-0.4-0.8-0.9-1.5-1.4-2.2c-1.8-0.5-5-1.2-9-1.2s-7.1,0.7-9,1.2C327.1,27.2,326.6,28,326.1,28.8z M180.8,93.2 l4.9,2.3l-1.1,2.6h129.8l-1.2-2.6l5-2.3v-0.5H180.8V93.2z M324.4,138.4h24.3l4,0.8V103l1.6-1l-7.7-3.4h-20.3l-7.5,3.4l1.5,1v36.2 L324.4,138.4z M191.2,110.1h116.6v26.3H191.2V110.1z M319.3,89l0.6,1.4l6.9-3h19.6l6.7,3l0.6-1.4l-0.1-0.2l-6.2-3.1h-21.8l-6.2,3.1 L319.3,89z M327.6,84.7V48h-0.2l-5.8,3.7v33.8l-1.1,1.7l4.9-2.5H327.6z M325.2,71.7l-2.4,0.7v-15l2.4-1.2V71.7z M317.9,101.3 l8.3-3.7H347l8.2,3.6l2-4.7l-4.4-2.1v-0.5l-5.4-2.6h-21.8l-5.4,2.6v0.5l-4.4,2.1L317.9,101.3z M352.5,87.2l-1.1-1.7V51.7l-5.9-3.7 h-0.2v36.6h2.3L352.5,87.2z M347.8,56.1l2.4,1.2v15l-2.4-0.7V56.1z M118.5,283.3h1.2c0-2.4-0.1-4.7-0.4-6.8h-0.8 C118.5,276.5,118.5,283.3,118.5,283.3z M364.2,354.3l-0.3-0.4c0,0,0-0.1-0.1-0.1h-54.7c0,0,0,0.1-0.1,0.1l-0.3,0.4h-1.3 c-0.1,0.5-0.2,1.1-0.3,1.8h58.6c-0.1-0.7-0.2-1.4-0.3-1.8H364.2z M131.6,353.2l0.1-0.8h1.9c2.4-4,3.3-13.8,3.5-15.9l-1.9-2.1 l2.1-1.9h-2.5l3-4.8v-102h-122v11.8h43.4v-8.9h72v127.6C131.4,354.4,131.6,353.2,131.6,353.2z M299.8,292.6v-3.5h-2.3L299.8,292.6z M297.2,284.3h10.1v3.8h-10.1V284.3z M306.8,358.3c4.1,0,18.7,0,31.6,0c7.4,0,14.6,0,20,0c4.2,0,6.5,0,7.8,0 c-0.1-0.4-0.1-0.8-0.2-1.1h-59C307,357.5,306.9,357.9,306.8,358.3z M364.7,204.2l-3.6,1.5v15h8c0.3-0.8,0.9-2.3,0.9-4.5 c0-1.9,0.6-2.6,1.2-3.3c0.5-0.6,0.9-1.1,0.9-2.5c0-1.7,0.6-2.6,1.2-3.5c0.5-0.8,1-1.5,1.1-2.9h-9.6L364.7,204.2z M378.5,207.3 c-0.6,0.8-1.1,1.6-1.1,2.9c0,1.8-0.6,2.5-1.2,3.2c-0.5,0.6-1,1.2-1,2.7c0,2-0.4,3.5-0.8,4.5h7.5c0.3-0.8,0.9-2.3,0.9-4.5 c0-1.9,0.6-2.6,1.2-3.3c0.5-0.6,0.9-1.1,0.9-2.5c0-1.7,0.6-2.6,1.2-3.5c0.5-0.8,1-1.5,1.1-2.9h-7.6 C379.7,205.6,379,206.5,378.5,207.3z M374.2,207.3c-0.6,0.8-1.1,1.6-1.1,2.9c0,1.8-0.6,2.5-1.2,3.2c-0.5,0.6-1,1.2-1,2.7 c0,2-0.4,3.5-0.8,4.5h3.2c0.3-0.8,0.9-2.3,0.9-4.5c0-1.9,0.6-2.6,1.2-3.3c0.5-0.6,0.9-1.1,0.9-2.5c0-1.7,0.6-2.6,1.2-3.5 c0.5-0.8,1-1.5,1.1-2.9h-3.3C375.4,205.6,374.7,206.5,374.2,207.3z M387,207.3c-0.6,0.8-1.1,1.6-1.1,2.9c0,1.8-0.6,2.5-1.2,3.2 c-0.5,0.6-1,1.2-1,2.7c0,2-0.4,3.5-0.8,4.5h3.2c0.3-0.8,0.9-2.3,0.9-4.5c0-1.9,0.6-2.6,1.2-3.3c0.5-0.6,0.9-1.1,0.9-2.5 c0-1.7,0.6-2.6,1.2-3.5c0.5-0.8,1-1.5,1.1-2.9h-3.3C388.2,205.6,387.6,206.5,387,207.3z M112,276.5h5.5v6.8H112V276.5z M117.5,267.1 c-0.7-2.4-1.6-4.5-2.5-6.4h-3v6.9h5.5V267.1z M112,259.8h2.5c-0.8-1.4-1.6-2.7-2.5-3.9V259.8z M118.5,275.5h0.7 c-0.2-1.6-0.4-3.1-0.7-4.5V275.5z M130.9,153.6l-0.4-0.2l1.6-0.7c-39.9-0.1-109.8-0.2-111.4,0l-0.1-0.4v1.3L130.9,153.6L130.9,153.6 z M123,283.3c-0.2-35.8-26.1-41.8-27.8-42.2c-1.7,0.4-27.6,6.5-27.8,42.2h2.3c0.2-31.5,19.3-38.1,25.2-39.3c0.1,0,0.1,0,0.2,0 l0.2-0.1l0.2,0.1h0.1c5.9,1.3,25,7.8,25.2,39.3H123z M112,268.6h5.5v6.9H112V268.6z M438.5,207.3c-0.6,0.8-1.1,1.6-1.1,2.9 c0,1.8-0.6,2.5-1.2,3.2c-0.5,0.6-1,1.2-1,2.7c0,2-0.4,3.5-0.8,4.5h3.2c0.3-0.8,0.9-2.3,0.9-4.5c0-1.9,0.6-2.6,1.2-3.3 c0.5-0.6,0.9-1.1,0.9-2.5c0-1.7,0.6-2.6,1.2-3.5c0.5-0.8,1-1.5,1.1-2.9h-3.3C439.7,205.6,439,206.5,438.5,207.3z M455.6,207.3 c-0.6,0.8-1.1,1.6-1.1,2.9c0,1.8-0.6,2.5-1.2,3.2c-0.5,0.6-1,1.2-1,2.7c0,2-0.4,3.5-0.8,4.5h7.5c0.3-0.8,0.9-2.3,0.9-4.5 c0-1.9,0.6-2.6,1.2-3.3c0.5-0.6,0.9-1.1,0.9-2.5c0-1.7,0.6-2.6,1.2-3.5c0.5-0.8,1-1.5,1.1-2.9h-7.6 C456.8,205.6,456.2,206.5,455.6,207.3z M464.2,207.3c-0.6,0.8-1.1,1.6-1.1,2.9c0,1.8-0.6,2.5-1.2,3.2c-0.5,0.6-1,1.2-1,2.7 c0,2-0.4,3.5-0.8,4.5h3.2c0.3-0.8,0.9-2.3,0.9-4.5c0-1.9,0.6-2.6,1.2-3.3c0.5-0.6,0.9-1.1,0.9-2.5c0-1.7,0.6-2.6,1.2-3.5 c0.5-0.8,1-1.5,1.1-2.9h-3.3C465.4,205.6,464.8,206.5,464.2,207.3z M451.3,207.3c-0.6,0.8-1.1,1.6-1.1,2.9c0,1.8-0.6,2.5-1.2,3.2 c-0.5,0.6-1,1.2-1,2.7c0,2-0.4,3.5-0.8,4.5h3.2c0.3-0.8,0.9-2.3,0.9-4.5c0-1.9,0.6-2.6,1.2-3.3c0.5-0.6,0.9-1.1,0.9-2.5 c0-1.7,0.6-2.6,1.2-3.5c0.5-0.8,1-1.5,1.1-2.9h-3.3C452.5,205.6,451.9,206.5,451.3,207.3z M468.5,207.3c-0.6,0.8-1.1,1.6-1.1,2.9 c0,1.8-0.6,2.5-1.2,3.2c-0.5,0.6-1,1.2-1,2.7c0,2-0.4,3.5-0.8,4.5h7.5c0.3-0.8,0.9-2.3,0.9-4.5c0-1.9,0.6-2.6,1.2-3.3 c0.5-0.6,0.9-1.1,0.9-2.5c0-1.7,0.6-2.6,1.2-3.5c0.5-0.8,1-1.5,1.1-2.9h-7.6C469.7,205.6,469.1,206.5,468.5,207.3z M391.3,207.3 c-0.6,0.8-1.1,1.6-1.1,2.9c0,1.8-0.6,2.5-1.2,3.2c-0.5,0.6-1,1.2-1,2.7c0,2-0.4,3.5-0.8,4.5h7.5c0.3-0.8,0.9-2.3,0.9-4.5 c0-1.9,0.6-2.6,1.2-3.3c0.5-0.6,0.9-1.1,0.9-2.5c0-1.7,0.6-2.6,1.2-3.5c0.5-0.8,1-1.5,1.1-2.9h-7.6 C392.5,205.6,391.9,206.5,391.3,207.3z M360.4,195v0.1l7.3,2h115.6l2-2.1H360.4z M498.1,203.9h-15.5c-0.1,1.7-0.7,2.6-1.3,3.5 c-0.5,0.7-0.9,1.4-1,2.4h7.3v0.5L498.1,203.9z M442.8,207.3c-0.6,0.8-1.1,1.6-1.1,2.9c0,1.8-0.6,2.5-1.2,3.2c-0.5,0.6-1,1.2-1,2.7 c0,2-0.4,3.5-0.8,4.5h7.5c0.3-0.8,0.9-2.3,0.9-4.5c0-1.9,0.6-2.6,1.2-3.3c0.5-0.6,0.9-1.1,0.9-2.5c0-1.7,0.6-2.6,1.2-3.5 c0.5-0.8,1-1.5,1.1-2.9h-7.6C444,205.6,443.3,206.5,442.8,207.3z M477.1,207.3c-0.6,0.8-1.1,1.6-1.1,2.9c0,1.8-0.6,2.5-1.2,3.2 c-0.5,0.6-1,1.2-1,2.7c0,2-0.4,3.5-0.8,4.5h3.2c0.3-0.8,0.9-2.3,0.9-4.5c0-1.9,0.6-2.6,1.2-3.3c0.5-0.6,0.9-1.1,0.9-2.5 c0-1.7,0.6-2.6,1.2-3.5c0.5-0.8,1-1.5,1.1-2.9h-3.3C478.3,205.6,477.6,206.5,477.1,207.3z M404.2,207.3c-0.6,0.8-1.1,1.6-1.1,2.9 c0,1.8-0.6,2.5-1.2,3.2c-0.5,0.6-1,1.2-1,2.7c0,2-0.4,3.5-0.8,4.5h7.5c0.3-0.8,0.9-2.3,0.9-4.5c0-1.9,0.6-2.6,1.2-3.3 c0.5-0.6,0.9-1.1,0.9-2.5c0-1.7,0.6-2.6,1.2-3.5c0.5-0.8,1-1.5,1.1-2.9h-7.6C405.4,205.6,404.8,206.5,404.2,207.3z M412.8,207.3 c-0.6,0.8-1.1,1.6-1.1,2.9c0,1.8-0.6,2.5-1.2,3.2c-0.5,0.6-1,1.2-1,2.7c0,2-0.4,3.5-0.8,4.5h3.2c0.3-0.8,0.9-2.3,0.9-4.5 c0-1.9,0.6-2.6,1.2-3.3c0.5-0.6,0.9-1.1,0.9-2.5c0-1.7,0.6-2.6,1.2-3.5c0.5-0.8,1-1.5,1.1-2.9h-3.3 C414,205.6,413.3,206.5,412.8,207.3z M399.9,207.3c-0.6,0.8-1.1,1.6-1.1,2.9c0,1.8-0.6,2.5-1.2,3.2c-0.5,0.6-1,1.2-1,2.7 c0,2-0.4,3.5-0.8,4.5h3.2c0.3-0.8,0.9-2.3,0.9-4.5c0-1.9,0.6-2.6,1.2-3.3c0.5-0.6,0.9-1.1,0.9-2.5c0-1.7,0.6-2.6,1.2-3.5 c0.5-0.8,1-1.5,1.1-2.9H401C401.1,205.6,400.5,206.5,399.9,207.3z M425.6,207.3c-0.6,0.8-1.1,1.6-1.1,2.9c0,1.8-0.6,2.5-1.2,3.2 c-0.5,0.6-1,1.2-1,2.7c0,2-0.4,3.5-0.8,4.5h3.2c0.3-0.8,0.9-2.3,0.9-4.5c0-1.9,0.6-2.6,1.2-3.3c0.5-0.6,0.9-1.1,0.9-2.5 c0-1.7,0.6-2.6,1.2-3.5c0.5-0.8,1-1.5,1.1-2.9h-3.3C426.8,205.6,426.2,206.5,425.6,207.3z M429.9,207.3c-0.6,0.8-1.1,1.6-1.1,2.9 c0,1.8-0.6,2.5-1.2,3.2c-0.5,0.6-1,1.2-1,2.7c0,2-0.4,3.5-0.8,4.5h7.5c0.3-0.8,0.9-2.3,0.9-4.5c0-1.9,0.6-2.6,1.2-3.3 c0.5-0.6,0.9-1.1,0.9-2.5c0-1.7,0.6-2.6,1.2-3.5c0.5-0.8,1-1.5,1.1-2.9H431C431.1,205.6,430.5,206.5,429.9,207.3z M105.4,268.6h5.5 v6.9h-5.5V268.6z M417,207.3c-0.6,0.8-1.1,1.6-1.1,2.9c0,1.8-0.6,2.5-1.2,3.2c-0.5,0.6-1,1.2-1,2.7c0,2-0.4,3.5-0.8,4.5h7.5 c0.3-0.8,0.9-2.3,0.9-4.5c0-1.9,0.6-2.6,1.2-3.3c0.5-0.6,0.9-1.1,0.9-2.5c0-1.7,0.6-2.6,1.2-3.5c0.5-0.8,1-1.5,1.1-2.9h-7.6 C418.3,205.6,417.6,206.5,417,207.3z M221.1,155.6h4.3v4.3h-4.3V155.6z M72.8,276.5h5.5v6.8h-5.5V276.5z M84.9,252.9H81 c-0.5,0.5-1.1,1.1-1.6,1.8v5.1h5.5V252.9z M84.9,249.5c-1,0.7-1.9,1.5-2.9,2.4h2.9V249.5z M72.8,268.6h5.5v6.9h-5.5V268.6z M105.4,276.5h5.5v6.8h-5.5V276.5z M91.4,246c-1.6,0.6-3.5,1.5-5.5,2.8v3.1h5.5V246z M85.9,252.9h5.5v6.9h-5.5V252.9z M79.3,276.5 h5.5v6.8h-5.5V276.5z M79.3,268.6h5.5v6.9h-5.5V268.6z M130.8,199.1H0v3.8h133.3L130.8,199.1z M78.3,260.8h-3c-1,1.9-1.8,4-2.5,6.4 v0.5h5.5V260.8z M129.1,283.3v-52.7h-68v52.7h5.1c0.3-37.6,28.5-43.1,28.8-43.2h0.1h0.1c0.3,0.1,28.5,5.6,28.8,43.2H129.1z M16.3,164h120.4v-1.8c-41.5-0.1-118.9-0.3-120.8,0l-0.1-0.4v2.1l0.5,0.6C16.3,164.5,16.3,164,16.3,164z M70.6,283.3h1.2v-6.8H71 C70.7,278.6,70.6,280.9,70.6,283.3z M78.3,255.9c-0.9,1.2-1.7,2.4-2.5,3.9h2.5V255.9z M71.8,271c-0.3,1.4-0.5,2.9-0.7,4.5h0.7V271z M79.3,260.8h5.5v6.9h-5.5V260.8z M104.4,248.8c-2-1.3-3.9-2.2-5.5-2.8v5.8h5.5V248.8z M98.9,276.5h5.5v6.8h-5.5V276.5z M98.9,252.9 h5.5v6.9h-5.5V252.9z M98.9,268.6h5.5v6.9h-5.5V268.6z M98.9,260.8h5.5v6.9h-5.5V260.8z M105.4,260.8h5.5v6.9h-5.5V260.8z M105.4,251.9h2.9c-1-0.9-1.9-1.7-2.9-2.4V251.9z M111,254.7c-0.5-0.6-1-1.2-1.6-1.8h-3.9v6.9h5.5V254.7z M97.9,245.7 c-1-0.3-1.9-0.6-2.6-0.7h-0.1h-0.1c-0.7,0.2-1.6,0.4-2.6,0.7v6.2H98v-6.2H97.9z M85.9,268.6h5.5v6.9h-5.5V268.6z M85.9,260.8h5.5 v6.9h-5.5V260.8z M85.9,276.5h5.5v6.8h-5.5V276.5z M92.4,252.9h5.5v6.9h-5.5V252.9z M92.4,276.5h5.5v6.8h-5.5V276.5z M92.4,260.8 h5.5v6.9h-5.5V260.8z M92.4,268.6h5.5v6.9h-5.5V268.6z M326.9,88.4l-6.7,2.9v1.5l5.3-2.5h22.1l5.2,2.5v-1.4l-6.8-3H326.9z M203.7,160.9h4.3v22.9h-4.3V160.9z M427.1,283.3h1.2c0-2.4-0.1-4.7-0.4-6.8h-0.8L427.1,283.3L427.1,283.3z M476.9,221.6 C476.9,221.7,476.9,221.7,476.9,221.6h-0.2h-4.1v0.1l-0.1-0.1h-8.4v0.1l-0.1-0.1h-4.1v0.1l-0.1-0.1h-8.4v0.1l-0.1-0.1h-4.1v0.1 l-0.1-0.1h-8.4v0.1l-0.1-0.1h-4.1v0.1l-0.1-0.1H426v0.1l-0.1-0.1h-4.1v0.1l-0.1-0.1h-8.4v0.1l-0.1-0.1h-4.1v0.1l-0.1-0.1h-8.4v0.1 l-0.1-0.1h-4.1v0.1l-0.1-0.1h-8.4v0.1l-0.1-0.1h-4.1v0.1l-0.1-0.1h-8.4v0.1l-0.1-0.1H371v0.1l-0.1-0.1h-8.5v3.1h122.1v1H361.1v101.8 l3,4.8h-2.5l2.1,1.9l-1.9,2.1c0.2,2.1,1.1,12,3.5,15.9h1.9l0.1,0.8c0,0,0.2,1.2,0.5,3V228.6h72v8.9h43.4v1h-43.4v22h43.4v1h-43.4v22 h43.4v1h-43.4v22h43.4v1h-43.4v22h43.4v1h-43.4v41h-2v-87.3h-5.1v87.3h-1v-87.3H376v87.3h-1v-87.3h-5.1v81.3c0.5,2,1,3.8,1.6,5.2 l-1.6,0.6v0.2h-2v-5.7c-0.6-2.2-1-4.5-1.4-6.6c-7,0-52.8,0-59.7,0c-0.8,4-1.9,9.1-3.2,12.3l-1.9-0.7c2.2-5.5,4.1-17.5,4.1-17.6 l0.1-0.8h1.5v-63.2h-6.5v4.3h-0.5c0,0,0.2,78.2,0,78.2s182.9,0,182.9,0V225.2c0,0,1.1-1.2,1.2-3.6L476.9,221.6L476.9,221.6z M418.5,333.6h-0.9v27.9l-1.2,2.4v7.7h-2v-8.2l1.2-2.4v-26.8h-1.2v-1.8h-1.2v-2.8c0-16.3-5-20.1-9.5-21.5c-4.5,1.4-9.5,5.2-9.5,21.5 v2.8H393v1.8h-1V361l1.2,2.4v8.2h-2v-7.7l-1.2-2.4v-27.9h-0.9v-36.8h29.4V333.6z M421.2,371.6h-1V295h-32.9v76.6h-1V294h34.9V371.6z M425.3,371.6h-1v-82.5h-41v82.5h-1v-83.5h43V371.6z M199.2,292.6l2.2-3.5h-2.2V292.6z M391.1,330.4h1.2v-0.8 c0-13.8,3.6-21.3,11.2-23.5l0.3-0.1l0.3,0.1c7.7,2.2,11.2,9.7,11.2,23.5v0.8h1.2v1.8h1v-34.5h-27.4v34.5h1L391.1,330.4L391.1,330.4z M14.5,220.6h7c-0.4-0.9-0.8-2.5-0.8-4.5c0-1.5-0.4-2-1-2.7c-0.5-0.6-1-1.3-1.1-2.7h-7.4v-1h7.3c-0.1-1.1-0.5-1.7-1-2.4 c-0.6-0.8-1.2-1.8-1.3-3.5H0.8l10.4,6.4c0,0,0,3.5,0,5.9c0,3.8,3.2,4.9,3.2,4.9v-0.4H14.5z M82.5,330.4h1.2v-0.8 c0-13.8,3.6-21.3,11.2-23.5l0.3-0.1l0.3,0.1c7.7,2.2,11.2,9.7,11.2,23.5v0.8h1.2v1.8h1v-34.5H81.5v34.5h1V330.4z M198.7,293.4h-0.5 v-4.3h-6.5v63.2h1.5l0.1,0.8c0,0.1,1.9,12.1,4.1,17.6l-1.9,0.7c-1.3-3.2-2.4-8.3-3.2-12.3c-7,0-52.7,0-59.7,0 c-0.4,2-0.9,4.4-1.4,6.6v5.7h-2v-0.2l-1.6-0.6c0.6-1.4,1.1-3.3,1.6-5.2v-81.3H124v87.3h-1v-87.3H67.3v87.3h-1v-87.3h-5.1v87.3h-2 v-41H15.8v41c0,0,183.1,0,182.9,0S198.7,293.4,198.7,293.4z M109.8,333.6H109v27.9l-1.2,2.4v7.7h-2v-8.2l1.2-2.4v-26.8h-1.2v-1.8 h-1.2v-2.8c0-16.3-5-20.1-9.5-21.5c-4.5,1.4-9.5,5.2-9.5,21.5v2.8h-1.2v1.8h-1.2V361l1.2,2.4v8.2h-2v-7.7l-1.2-2.4v-27.9h-0.9v-36.8 h29.4L109.8,333.6L109.8,333.6z M112.6,371.6h-1V295H78.7v76.6h-1V294h34.9V371.6z M116.6,371.6h-1v-82.5h-41v82.5h-1v-83.5h43 V371.6z M420.6,259.8h2.5c-0.8-1.4-1.6-2.7-2.5-3.9V259.8z M426.1,267.1c-0.7-2.4-1.6-4.5-2.5-6.4h-3v6.9h5.5V267.1z M15.6,161.2 c1.2-0.4,98.8-0.1,121.1,0v-1.6l-1,0.3V158h-122v-0.5l-0.6,0.3l2.6,3.8L15.6,161.2z M414.1,268.6h5.5v6.9h-5.5V268.6z M427.1,275.5 h0.7c-0.2-1.6-0.4-3.1-0.7-4.5V275.5z M431.6,283.3c-0.2-35.8-26.1-41.8-27.8-42.2c-1.7,0.4-27.6,6.5-27.8,42.2h2.3 c0.2-31.5,19.3-38.1,25.2-39.3c0.1,0,0.1,0,0.2,0l0.2-0.1l0.2,0.1h0.1c5.9,1.3,25,7.8,25.2,39.3H431.6z M420.6,276.5h5.5v6.8h-5.5 V276.5z M420.6,268.6h5.5v6.9h-5.5V268.6z M20.6,151.7c0.9-0.2,92-0.1,113.8,0l8.2-3.6l-0.2-0.4H22.5v-0.5l-4.7,1.4l2.8,3.6 L20.6,151.7z M359.1,327.3v-122l-6.3-1.4h-2v123.4h2v-10.4h4.7v10.4H359.1z M353.8,317.9h2.7v9.4h-2.7V317.9z M323.2,203.9h26.6 v123.4h-26.6V203.9z M322.2,327.3V203.9h-2l-6.3,1.4v122h1.6v-10.4h4.7v10.4H322.2z M316.5,317.9h2.7v9.4h-2.7V317.9z M313.7,328.3 l-1.3,2h4l-0.6,0.5c7.4,0.1,33.7,0.1,41.1,0l-0.6-0.5h4l-1.3-2H313.7z M352.9,201.1h-32.8l-8.7,2.2l2.4,1l6.3-1.4H353l6.2,1.4l2.4-1 L352.9,201.1z M485.2,158h-122v1.9l-1-0.3v1.6c22.3-0.1,119.9-0.4,121.1,0l-0.2,0.5l-0.1,0.5c-1.9-0.3-79.3-0.1-120.8,0v1.8h120.4 v0.5l0.5-0.6v-2.3l2.7-3.9l-0.6-0.3V158z M162.4,11.2l2.4,2.5c0.1-0.3,0.2-0.7,0.2-1.1c0-0.9-0.4-1.7-1.1-2.1L162.4,0l-1.5,10.5 c-0.7,0.5-1.1,1.3-1.1,2.1c0,0.4,0.1,0.7,0.2,1.1L162.4,11.2z M336.5,11.2l2.4,2.5c0.1-0.3,0.2-0.7,0.2-1.1c0-0.9-0.4-1.7-1.1-2.1 L336.5,0L335,10.5c-0.7,0.5-1.1,1.3-1.1,2.1c0,0.4,0.1,0.7,0.2,1.1L336.5,11.2z M140.7,143.7l3.5-4.1v-0.7H22.5v7.7H142L140.7,143.7 z M414.1,276.5h5.5v6.8h-5.5V276.5z M358.4,196.7v-0.5l-4.6-1.2h-34.6l-4.6,1.2v0.5l-7.6,2l2.6,3.9l0.2,0.1l10.2-2.6h33.1l10.1,2.6 l0.2-0.1l2.6-3.9L358.4,196.7z M354.7,139.6l3.5,4.1l-1.2,2.9h119.4v-7.7H354.7V139.6z M476.4,147.6H356.6l-0.2,0.4l8.2,3.6 c21.8,0,112.9-0.2,113.8,0l-0.1,0.4l2.8-3.6l-4.7-1.4V147.6z M336.5,331.9c-9.3,0-18.6,0-21.6-0.1l-2.2,2h47.6l-2.2-2 C355.1,331.9,345.8,331.9,336.5,331.9z M388,260.8h5.5v6.9H388V260.8z M393.5,249.5c-1,0.7-1.9,1.5-2.9,2.4h2.9V249.5z M393.5,252.9 h-3.9c-0.5,0.5-1.1,1.1-1.6,1.8v5.1h5.5V252.9z M381.5,268.6h5.5v6.9h-5.5V268.6z M388,268.6h5.5v6.9H388V268.6z M388,276.5h5.5v6.8 H388V276.5z M400,246c-1.6,0.6-3.5,1.5-5.5,2.8v3.1h5.5V246z M381.5,276.5h5.5v6.8h-5.5V276.5z M480.3,210.8 c-0.1,1.4-0.6,2.1-1.1,2.7c-0.5,0.6-1,1.2-1,2.7c0,2-0.4,3.5-0.8,4.5h7v0.5c0,0,3.2-1.2,3.2-4.9c0-1.9,0-4.4,0-5.4h-7.3V210.8z M394.5,252.9h5.5v6.9h-5.5V252.9z M368.1,199.1l-2.5,3.8h133.3v0.5l0,0v-4.3H368.1z M437.8,283.3v-52.7h-68v52.7h5.1 c0.3-37.6,28.5-43.1,28.8-43.2h0.1h0.1c0.3,0.1,28.5,5.6,28.8,43.2H437.8z M379.2,283.3h1.2v-6.8h-0.8 C379.4,278.6,379.2,280.9,379.2,283.3z M387,255.9c-0.9,1.2-1.7,2.4-2.5,3.9h2.5V255.9z M387,260.8h-3c-1,1.9-1.8,4-2.5,6.4v0.5h5.5 V260.8z M380.5,271c-0.3,1.4-0.5,2.9-0.7,4.5h0.7V271z M414.1,251.9h2.9c-1-0.9-1.9-1.7-2.9-2.4V251.9z M413.1,248.8 c-2-1.3-3.9-2.2-5.5-2.8v5.8h5.5V248.8z M407.5,260.8h5.5v6.9h-5.5V260.8z M407.5,252.9h5.5v6.9h-5.5V252.9z M407.5,276.5h5.5v6.8 h-5.5V276.5z M419.6,254.7c-0.5-0.6-1-1.2-1.6-1.8h-3.9v6.9h5.5V254.7z M407.5,268.6h5.5v6.9h-5.5V268.6z M414.1,260.8h5.5v6.9h-5.5 V260.8z M394.5,268.6h5.5v6.9h-5.5V268.6z M394.5,260.8h5.5v6.9h-5.5V260.8z M406.5,245.7c-1-0.3-1.9-0.6-2.6-0.7h-0.1h-0.1 c-0.7,0.2-1.6,0.4-2.6,0.7v6.2h5.5L406.5,245.7L406.5,245.7z M394.5,276.5h5.5v6.8h-5.5V276.5z M401,268.6h5.5v6.9H401V268.6z M401,252.9h5.5v6.9H401V252.9z M401,276.5h5.5v6.8H401V276.5z M401,260.8h5.5v6.9H401V260.8z M297.2,283.3h4.8 c-0.2-52.8-35.5-65.6-48.7-70.5c-1.7-0.6-3-1.1-3.8-1.5c-0.8,0.4-2.1,0.9-3.8,1.5c-13.3,4.8-48.5,17.7-48.7,70.5h4.8v1h-10.1v3.8 h10.1v0.5l0,0v-4.8c0-58.3,47.6-67.3,47.7-67.3s47.7,9,47.7,67.3V283.3z M138.4,330.3h4l-0.6,0.5c7.3,0,33.7,0,41.1,0l-0.6-0.5h4 l-1.3-2h-45.5L138.4,330.3z M149.2,203.9h26.6v123.4h-26.6V203.9z M185.1,327.3v-122l-6.3-1.4h-2.1v123.4h2.1v-10.4h4.7v10.4H185.1z M142.4,317.9h2.7v9.4h-2.7V317.9z M138.6,194v-1.7h-120v-0.5l-4.4,2.2H138.6z M148.2,327.3V203.9h-2.1l-6.3,1.4v122h1.6v-10.4h4.7 v10.4H148.2z M313.1,335.5h46.8l0.6-0.7h-48L313.1,335.5z M131.2,197.1l7.4-2V195h-125l2,2.1H131.2z M134,203.9h-9.6 c0.1,1.4,0.6,2.1,1.1,2.9c0.6,0.9,1.2,1.8,1.2,3.5c0,1.4,0.4,1.9,0.9,2.5c0.6,0.7,1.2,1.5,1.2,3.3c0,2.2,0.5,3.7,0.9,4.5h8v-15 l-3.6-1.5L134,203.9z M18.8,166.8c2,0.4,75.2,0.2,117.9,0V165h-120l1.9,2.2l0,0L18.8,166.8z M146,201.1l-8.7,2.2l2.4,1l6.3-1.4h33 l6.2,1.4l2.4-1l-8.7-2.2H146z M189.7,204.6l-2.6,1.1v121.8l2.6,4.2V204.6z M35.5,220.6h3.2c-0.4-0.9-0.8-2.5-0.8-4.5 c0-1.5-0.4-2-1-2.7c-0.5-0.7-1.2-1.4-1.2-3.2c0-1.4-0.5-2.1-1.1-2.9c-0.6-0.8-1.2-1.8-1.3-3.5H30c0.1,1.4,0.6,2.1,1.1,2.9 c0.6,0.9,1.2,1.8,1.2,3.5c0,1.4,0.4,1.9,0.9,2.5c0.6,0.7,1.2,1.5,1.2,3.3C34.6,218.3,35.2,219.8,35.5,220.6z M162.4,331.9 c-9.3,0-18.6,0-21.6-0.1l-2.2,2h47.6l-2.2-2C181,331.9,171.7,331.9,162.4,331.9z M139.1,335.5h46.7l0.6-0.7h-48L139.1,335.5z M189.7,332.3h-2.1l2.1,1.9l-1.9,2.1c0.1,1.6,0.7,7.5,1.9,12V332.3z M189.2,352.8c-2.4-4.7-3.3-14.1-3.5-16.3h-46.6 c-0.2,2.2-1,11.6-3.5,16.3H189.2z M179.4,84.9l2.5,3.9l-1.1,2.7v0.3h137.4v-0.3l-1.1-2.7l2.5-3.9v-9.5c-12,0-128.2,0-140.2,0 L179.4,84.9L179.4,84.9z M480.3,191.8v0.5H360.4v1.7h124.4L480.3,191.8z M358,166.7c0.9,0,1.8,0,2.7,0l-2.7-0.6V166.7z M321,156.1 l-4,1.4v30.7l4.6-1.2l29.9,0.1l4.5,1.1v-30.7l-4-1.4h-0.4v8h-5.5v-8H339v8h-5v-8h-7.1v8h-5.5v-8H321z M360.4,191.3h119.9v-23.6 c-1.2,0.1-7.1,0.3-36.6,0.3c-18.1,0-45.2-0.1-85.7-0.2v20.5l2.4,0.6V191.3z M354,194l4.4,1.1v-4.7l-2.4-0.6v-0.5l-4.7-1.3h-29.6 l-4.7,1.3v0.5l-2.4,0.6v4.7l4.5-1.1H354z M205.8,189.1c0.1,0,0.2,0,0.4-0.2c0.6-0.7,0.8-2.7,0.8-4.1h-2.6 C204.4,186.3,204.5,189.1,205.8,189.1z M18.6,167.7v23.6h119.9v-2.5l2.4-0.6v-20.5c-40.5,0.2-67.6,0.2-85.7,0.2 C25.7,168,19.9,167.8,18.6,167.7z M203.7,155.6h4.3v4.3h-4.3V155.6z M361.2,156.2l-8.7-3.5h-16h-16l-8.7,3.5v0.9l0.9-0.3v7.8 l0.8-0.2v-7.9l7.1-2.4h2.8v8h1.5v-8H336v8h1v-8h11.1v8h1.5v-8h2.7l7.2,2.4v7.9l0.7,0.2v-7.8l1,0.3V156.2z M362.2,166.7 c42.7,0.2,115.9,0.4,117.9,0l0.1,0.5h0.1l1.9-2.2h-120V166.7z M150.3,141.8h24.2l6.4,1.2l-2.2-2.7l0,0l-4.2-0.9h-24.1l-4.2,0.9l0,0 L144,143L150.3,141.8z M31.5,210.3c0-1.4-0.5-2.1-1.1-2.9c-0.6-0.8-1.2-1.8-1.3-3.5h-7.6c0.1,1.4,0.6,2.1,1.1,2.9 c0.6,0.9,1.2,1.8,1.2,3.5c0,1.4,0.4,1.9,0.9,2.5c0.6,0.7,1.2,1.5,1.2,3.3c0,2.2,0.5,3.7,0.9,4.5h7.5c-0.4-0.9-0.8-2.5-0.8-4.5 c0-1.5-0.4-2-1-2.7C32.1,212.8,31.5,212.1,31.5,210.3z M144.7,148.1h35.5l1.6-4l-7.3-1.3h-24.2l-7.2,1.3L144.7,148.1z M162.4,14 l-0.9,0.9c-0.2,0.9-0.9,2-2,3.5c0.9-0.1,1.9-0.2,2.9-0.2s2,0.1,2.9,0.2c-1.1-1.5-1.8-2.5-2-3.5L162.4,14z M324.4,142.8l-7.3,1.3 l1.7,4h35.4l1.6-4l-7.3-1.3H324.4z M336.5,14l-0.9,0.9c-0.2,0.9-0.9,2-2,3.5c0.9-0.1,1.9-0.2,2.8-0.2c1,0,2,0.1,3,0.2 c-1.1-1.5-1.8-2.6-2-3.5L336.5,14z M352.7,140.3l-4.2-0.9h-24.1l-4.1,0.9l0,0L318,143l6.3-1.2h24.3l6.4,1.2L352.7,140.3z M179.8,317.9h2.7v9.4h-2.7V317.9z M19.6,210.3c0,1.4,0.4,1.9,0.9,2.5c0.6,0.7,1.2,1.5,1.2,3.3c0,2.2,0.5,3.7,0.9,4.5h3.2 c-0.4-0.9-0.8-2.5-0.8-4.5c0-1.5-0.4-2-1-2.7c-0.5-0.7-1.2-1.4-1.2-3.2c0-1.4-0.5-2.1-1.1-2.9c-0.6-0.8-1.2-1.8-1.3-3.5h-3.3 c0.1,1.4,0.6,2.1,1.1,2.9C19,207.7,19.6,208.6,19.6,210.3z M15.8,307.6h43.4v22H15.8V307.6z M15.8,225.2v-0.5h122.1v-3.1h-8.5 l-0.1,0.1c0,0,0,0,0-0.1h-4.1l-0.1,0.1c0,0,0,0,0-0.1h-8.4l-0.1,0.1c0,0,0,0,0-0.1h-4.1l-0.1,0.1c0,0,0,0,0-0.1H104l-0.1,0.1 c0,0,0,0,0-0.1h-4.1l-0.1,0.1c0,0,0,0,0-0.1h-8.4l-0.1,0.1c0,0,0,0,0-0.1h-4.1l-0.1,0.1c0,0,0,0,0-0.1h-8.4l-0.1,0.1c0,0,0,0,0-0.1 h-4.1l-0.1,0.1c0,0,0,0,0-0.1H65l-0.1,0.1c0,0,0,0,0-0.1h-4.1l-0.1,0.1c0,0,0,0,0-0.1h-8.4l-0.1,0.1c0,0,0,0,0-0.1h-4.1l-0.1,0.1 c0,0,0,0,0-0.1h-8.4l-0.1,0.1c0,0,0,0,0-0.1H35l-0.1,0.1c0,0,0,0,0-0.1h-8.4l-0.1,0.1c0,0,0,0,0-0.1h-4.1l-0.1,0.1c0,0,0,0,0-0.1 h-7.4C14.7,224,15.8,225.2,15.8,225.2z M15.8,284.5h43.4v22H15.8V284.5z M112.6,220.6h3.2c-0.4-0.9-0.8-2.5-0.8-4.5 c0-1.5-0.4-2-1-2.7c-0.5-0.7-1.2-1.4-1.2-3.2c0-1.4-0.5-2.1-1.1-2.9c-0.6-0.8-1.2-1.8-1.3-3.5h-3.3c0.1,1.4,0.6,2.1,1.1,2.9 c0.6,0.9,1.2,1.8,1.2,3.5c0,1.4,0.4,1.9,0.9,2.5c0.6,0.7,1.2,1.5,1.2,3.3C111.8,218.3,112.3,219.8,112.6,220.6z M125.5,220.6h3.2 c-0.4-0.9-0.8-2.5-0.8-4.5c0-1.5-0.4-2-1-2.7c-0.5-0.7-1.2-1.4-1.2-3.2c0-1.4-0.5-2.1-1.1-2.9c-0.6-0.8-1.2-1.8-1.3-3.5H120 c0.1,1.4,0.6,2.1,1.1,2.9c0.6,0.9,1.2,1.8,1.2,3.5c0,1.4,0.4,1.9,0.9,2.5c0.6,0.7,1.2,1.5,1.2,3.3 C124.7,218.3,125.2,219.8,125.5,220.6z M15.8,261.5h43.4v22H15.8V261.5z M116.9,220.6h7.5c-0.4-0.9-0.8-2.5-0.8-4.5 c0-1.5-0.4-2-1-2.7c-0.5-0.7-1.2-1.4-1.2-3.2c0-1.4-0.5-2.1-1.1-2.9c-0.6-0.8-1.2-1.8-1.3-3.5h-7.6c0.1,1.4,0.6,2.1,1.1,2.9 c0.6,0.9,1.2,1.8,1.2,3.5c0,1.4,0.4,1.9,0.9,2.5c0.6,0.7,1.2,1.5,1.2,3.3C116.1,218.3,116.6,219.8,116.9,220.6z M39.8,220.6h7.5 c-0.4-0.9-0.8-2.5-0.8-4.5c0-1.5-0.4-2-1-2.7c-0.5-0.7-1.2-1.4-1.2-3.2c0-1.4-0.5-2.1-1.1-2.9c-0.6-0.8-1.2-1.8-1.3-3.5h-7.6 c0.1,1.4,0.6,2.1,1.1,2.9c0.6,0.9,1.2,1.8,1.2,3.5c0,1.4,0.4,1.9,0.9,2.5c0.6,0.7,1.2,1.5,1.2,3.3C38.9,218.3,39.4,219.8,39.8,220.6 z M311.2,336.4l-1.9-2.1v14.1C310.5,343.9,311.1,338,311.2,336.4z M309.3,334.3l2.1-2h-2.1V334.3z M311.9,205.7l-2.6-1.1v127.1 l2.6-4.2V205.7z M313.2,336.5c-0.2,2.2-1,11.6-3.5,16.3h53.5c-2.4-4.7-3.3-14.1-3.5-16.3H313.2z M190.1,354.3l-0.3-0.4 c0,0,0-0.1-0.1-0.1H135c0,0,0,0.1-0.1,0.1l-0.3,0.4h-1.3c-0.1,0.5-0.2,1.1-0.3,1.8h58.6c-0.1-0.7-0.2-1.4-0.3-1.8H190.1z M184.9,358.3c3.8,0,6,0,7.2,0c-0.1-0.4-0.1-0.8-0.2-1.1H133c-0.1,0.4-0.1,0.7-0.2,1.1c4.4,0,20.3,0,33.3,0 C173.1,358.3,179.9,358.3,184.9,358.3z M15.8,238.5h43.4v22H15.8V238.5z M184.3,196.7v-0.5l-4.5-1.2h-34.7l-4.5,1.2v0.5l-7.6,2 l2.5,3.9l0.2,0.1l10.3-2.6h33.1l10.1,2.6l0.2-0.1l2.5-3.9L184.3,196.7z M215.8,229.4c10.7-10.7,23-15.1,29.5-17.5 c1.8-0.7,3.2-1.2,3.9-1.6l0.3-0.2l0.3,0.2c0.6,0.4,2.1,0.9,3.9,1.6c6.6,2.4,18.8,6.9,29.5,17.5c13.1,13,19.8,31.1,19.9,53.9h4.3 v-80.6l-0.4-0.6H192l-0.4,0.6v80.6h4.3C196,260.5,202.7,242.4,215.8,229.4z M65.5,220.6H73c-0.4-0.9-0.8-2.5-0.8-4.5 c0-1.5-0.4-2-1-2.7c-0.5-0.7-1.2-1.4-1.2-3.2c0-1.4-0.5-2.1-1.1-2.9c-0.6-0.8-1.2-1.8-1.3-3.5H60c0.1,1.4,0.6,2.1,1.1,2.9 c0.6,0.9,1.2,1.8,1.2,3.5c0,1.4,0.4,1.9,0.9,2.5c0.6,0.7,1.2,1.5,1.2,3.3C64.6,218.3,65.2,219.8,65.5,220.6z M104.1,220.6h7.5 c-0.4-0.9-0.8-2.5-0.8-4.5c0-1.5-0.4-2-1-2.7c-0.5-0.7-1.2-1.4-1.2-3.2c0-1.4-0.5-2.1-1.1-2.9c-0.6-0.8-1.2-1.8-1.3-3.5h-7.6 c0.1,1.4,0.6,2.1,1.1,2.9c0.6,0.9,1.2,1.8,1.2,3.5c0,1.4,0.4,1.9,0.9,2.5c0.6,0.7,1.2,1.5,1.2,3.3 C103.2,218.3,103.7,219.8,104.1,220.6z M74.1,220.6h3.2c-0.4-0.9-0.8-2.5-0.8-4.5c0-1.5-0.4-2-1-2.7c-0.5-0.7-1.2-1.4-1.2-3.2 c0-1.4-0.5-2.1-1.1-2.9c-0.6-0.8-1.2-1.8-1.3-3.5h-3.3c0.1,1.4,0.6,2.1,1.1,2.9c0.6,0.9,1.2,1.8,1.2,3.5c0,1.4,0.4,1.9,0.9,2.5 c0.6,0.7,1.2,1.5,1.2,3.3C73.2,218.3,73.7,219.8,74.1,220.6z M52.6,220.6h7.5c-0.4-0.9-0.8-2.5-0.8-4.5c0-1.5-0.4-2-1-2.7 c-0.5-0.7-1.2-1.4-1.2-3.2c0-1.4-0.5-2.1-1.1-2.9c-0.6-0.8-1.2-1.8-1.3-3.5h-7.6c0.1,1.4,0.6,2.1,1.1,2.9c0.6,0.9,1.2,1.8,1.2,3.5 c0,1.4,0.4,1.9,0.9,2.5c0.6,0.7,1.2,1.5,1.2,3.3C51.8,218.3,52.3,219.8,52.6,220.6z M48.3,220.6h3.2c-0.4-0.9-0.8-2.5-0.8-4.5 c0-1.5-0.4-2-1-2.7c-0.5-0.7-1.2-1.4-1.2-3.2c0-1.4-0.5-2.1-1.1-2.9c-0.6-0.8-1.2-1.8-1.3-3.5H43c0.1,1.4,0.6,2.1,1.1,2.9 c0.6,0.9,1.2,1.8,1.2,3.5c0,1.4,0.4,1.9,0.9,2.5c0.6,0.7,1.2,1.5,1.2,3.3C47.5,218.3,48,219.8,48.3,220.6z M78.4,220.6h7.5 c-0.4-0.9-0.8-2.5-0.8-4.5c0-1.5-0.4-2-1-2.7c-0.5-0.7-1.2-1.4-1.2-3.2c0-1.4-0.5-2.1-1.1-2.9c-0.6-0.8-1.2-1.8-1.3-3.5H73 c0.1,1.4,0.6,2.1,1.1,2.9c0.6,0.9,1.2,1.8,1.2,3.5c0,1.4,0.4,1.9,0.9,2.5c0.6,0.7,1.2,1.5,1.2,3.3C77.5,218.3,78,219.8,78.4,220.6z M61.2,220.6h3.2c-0.4-0.9-0.8-2.5-0.8-4.5c0-1.5-0.4-2-1-2.7c-0.5-0.7-1.2-1.4-1.2-3.2c0-1.4-0.5-2.1-1.1-2.9 c-0.6-0.8-1.2-1.8-1.3-3.5h-3.3c0.1,1.4,0.6,2.1,1.1,2.9c0.6,0.9,1.2,1.8,1.2,3.5c0,1.4,0.4,1.9,0.9,2.5c0.6,0.7,1.2,1.5,1.2,3.3 C60.4,218.3,60.9,219.8,61.2,220.6z M99.8,220.6h3.2c-0.4-0.9-0.8-2.5-0.8-4.5c0-1.5-0.4-2-1-2.7c-0.5-0.7-1.2-1.4-1.2-3.2 c0-1.4-0.5-2.1-1.1-2.9c-0.6-0.8-1.2-1.8-1.3-3.5h-3.3c0.1,1.4,0.6,2.1,1.1,2.9c0.6,0.9,1.2,1.8,1.2,3.5c0,1.4,0.4,1.9,0.9,2.5 c0.6,0.7,1.2,1.5,1.2,3.3C98.9,218.3,99.5,219.8,99.8,220.6z M91.2,220.6h7.5c-0.4-0.9-0.8-2.5-0.8-4.5c0-1.5-0.4-2-1-2.7 c-0.5-0.7-1.2-1.4-1.2-3.2c0-1.4-0.5-2.1-1.1-2.9c-0.6-0.8-1.2-1.8-1.3-3.5h-7.6c0.1,1.4,0.6,2.1,1.1,2.9c0.6,0.9,1.2,1.8,1.2,3.5 c0,1.4,0.4,1.9,0.9,2.5c0.6,0.7,1.2,1.5,1.2,3.3C90.4,218.3,90.9,219.8,91.2,220.6z M86.9,220.6h3.2c-0.4-0.9-0.8-2.5-0.8-4.5 c0-1.5-0.4-2-1-2.7c-0.5-0.7-1.2-1.4-1.2-3.2c0-1.4-0.5-2.1-1.1-2.9c-0.6-0.8-1.2-1.8-1.3-3.5h-3.3c0.1,1.4,0.6,2.1,1.1,2.9 c0.6,0.9,1.2,1.8,1.2,3.5c0,1.4,0.4,1.9,0.9,2.5c0.6,0.7,1.2,1.5,1.2,3.3C86.1,218.3,86.6,219.8,86.9,220.6z" fill="#D7CB5B"/></g></svg>